<svg id="eu2xDdQtXPU1" xmlns="http://www.w3.org/2000/svg" xmlns:xlink="http://www.w3.org/1999/xlink" viewBox="0 0 512 512" shape-rendering="geometricPrecision" text-rendering="geometricPrecision"><polygon points="0,-96.317491 83.413394,48.158745 -83.413394,48.158745 0,-96.317491" transform="matrix(.439079 0.62707-.836277 0.585568 275.45547 238.643931)" fill="#fff" stroke-width="0"/><rect width="117.649313" height="115.36486" rx="0" ry="0" transform="matrix(.614252 0.877242-.693657 0.485704 202.435021 214.538104)" fill="#fff" stroke-width="0"/><path d="M27.09536,256C27.09536,125.2003,129.57946,19.16619,256,19.16619s228.90464,106.03411,228.90464,236.83381-102.4841,236.83381-228.90464,236.83381-228.90464-106.03411-228.90464-236.83381ZM256,446.36559c101.09232,0,183.04384-85.22958,183.04384-190.36559s-81.95152-190.36559-183.04384-190.36559-183.04384,85.22958-183.04384,190.36559s81.95152,190.36559,183.04384,190.36559Z" fill="#fff" stroke-width="0"/></svg>