<svg id="erZsFWyBdLv1" xmlns="http://www.w3.org/2000/svg" xmlns:xlink="http://www.w3.org/1999/xlink" viewBox="0 0 640 480" shape-rendering="geometricPrecision" text-rendering="geometricPrecision"><polygon points="0,-137.168148 118.791101,68.584074 -118.791101,68.584074 0,-137.168148" transform="matrix(.473024-.392068 0.486925 0.587468 211.762 153.364)" fill="#fff" stroke-width="0"/><polygon points="0,-137.168148 118.791101,68.584074 -118.791101,68.584074 0,-137.168148" transform="matrix(.458731 0.408698-.507579 0.569717 433.822495 156.962)" fill="#fff" stroke-width="0"/><polygon points="0,-137.168148 118.791101,68.584074 -118.791101,68.584074 0,-137.168148" transform="matrix(.200107 0.006574-.016378 0.498513 324.833623 319.117997)" fill="#fff" stroke-width="0"/><polygon points="0,-137.168148 118.791101,68.584074 -118.791101,68.584074 0,-137.168148" transform="matrix(-.338234-.252185 0.333153-.446829 396.54897 206.238847)" fill="#fff" stroke-width="0"/><polygon points="0,-137.168148 118.791101,68.584074 -118.791101,68.584074 0,-137.168148" transform="matrix(-.346552 0.240628-.317884-.457817 239.500842 187.348032)" fill="#fff" stroke-width="0"/><polygon points="0,-137.168148 118.791101,68.584074 -118.791101,68.584074 0,-137.168148" transform="matrix(-.35598-.500747 0.621898-.442106 188.548 329.806)" fill="#fff" stroke-width="0"/><polygon points="0,-137.168148 118.791101,68.584074 -118.791101,68.584074 0,-137.168148" transform="matrix(-.356757 0.500193-.621211-.443071 451.454 334.392)" fill="#fff" stroke-width="0"/><path d="M188.96627,363.26014v-216.17937h270.61087v216.17937h-270.61087ZM418.38734,255.17041L323.2269,156.83605L221.61266,255.17051l95.16044,98.33436l101.61424-98.33446Z" transform="translate(0 0.000002)" fill="#fff" stroke-width="0"/></svg>