<svg id="eVQxwBCIUjd1" xmlns="http://www.w3.org/2000/svg" xmlns:xlink="http://www.w3.org/1999/xlink" viewBox="0 0 640 480" shape-rendering="geometricPrecision" text-rendering="geometricPrecision"><polygon points="0,-137.168148 118.791101,68.584074 -118.791101,68.584074 0,-137.168148" transform="matrix(.473024-.392068 0.486925 0.587468 211.762 153.364)" fill="#fff" stroke-width="0"/><polygon points="0,-137.168148 118.791101,68.584074 -118.791101,68.584074 0,-137.168148" transform="matrix(.458731 0.408698-.507579 0.569717 431.549 156.962)" fill="#fff" stroke-width="0"/><polygon points="0,-137.168148 118.791101,68.584074 -118.791101,68.584074 0,-137.168148" transform="matrix(-.35598-.500747 0.621898-.442106 188.548 329.806)" fill="#fff" stroke-width="0"/><polygon points="0,-137.168148 118.791101,68.584074 -118.791101,68.584074 0,-137.168148" transform="matrix(-.356757 0.500193-.621211-.443071 451.454 334.392)" fill="#fff" stroke-width="0"/><path d="M188.96644,363.26014v-216.17937h270.61087v216.17937h-270.61087ZM410.45911,259.80947l-86.89819-89.79653-92.36063,89.37952l86.89819,89.79653l92.36063-89.37952Z" fill="#fff" stroke-width="0"/></svg>