<svg id="eeHjU4xtLcT1" xmlns="http://www.w3.org/2000/svg" xmlns:xlink="http://www.w3.org/1999/xlink" viewBox="0 0 640 480" shape-rendering="geometricPrecision" text-rendering="geometricPrecision"><g transform="matrix(1.090926 0 0 1.118655-29.096322-28.524263)"><polygon points="0,-137.168148 118.791101,68.584074 -118.791101,68.584074 0,-137.168148" transform="matrix(.473024-.392068 0.486925 0.587468 211.76217 153.364011)" fill="#fff" stroke-width="0"/><polygon points="0,-137.168148 118.791101,68.584074 -118.791101,68.584074 0,-137.168148" transform="matrix(.458731 0.408698-.507579 0.569717 431.54949 156.962205)" fill="#fff" stroke-width="0"/><polygon points="0,-137.168148 118.791101,68.584074 -118.791101,68.584074 0,-137.168148" transform="matrix(-.35598-.500747 0.621898-.442106 188.548048 329.805685)" fill="#fff" stroke-width="0"/><polygon points="0,-137.168148 118.791101,68.584074 -118.791101,68.584074 0,-137.168148" transform="matrix(-.356757 0.500193-.621211-.443071 451.453905 334.39163)" fill="#fff" stroke-width="0"/><path d="M188.96644,363.26016v-216.17937h270.61087v216.17937h-270.61087ZM369.10091,252.95955l-43.61908-42.61928-43.58955,44.61211l43.61908,42.61928l43.58955-44.61211Z" fill="#fff" stroke-width="0"/></g></svg>