<svg id="ejb3TPvUlcB1" xmlns="http://www.w3.org/2000/svg" xmlns:xlink="http://www.w3.org/1999/xlink" viewBox="0 0 512 512" shape-rendering="geometricPrecision" text-rendering="geometricPrecision"><g transform="matrix(.955343-.269579 0.274084 0.971309-14.302947 132.975846)"><path d="M137.42907,256c0-65.55866,53.08602-118.70446,118.57093-118.70446s118.57093,53.1458,118.57093,118.70446-53.08602,118.70446-118.57093,118.70446-118.57093-53.1458-118.57093-118.70446ZM256,309.21908c30.00379,0,54.32667-23.827,54.32667-53.21908s-24.32288-53.21908-54.32667-53.21908-54.32667,23.827-54.32667,53.21908s24.32288,53.21908,54.32667,53.21908Z" fill="#d2dbed" stroke-width="0"/><rect width="68.15887" height="67.448882" rx="0" ry="0" transform="translate(225.03911 98.743663)" fill="#d2dbed" stroke-width="0"/><rect width="68.15887" height="67.448882" rx="0" ry="0" transform="translate(225.03911 340.980019)" fill="#d2dbed" stroke-width="0"/><rect width="68.15887" height="67.448882" rx="0" ry="0" transform="translate(340.491495 222.275559)" fill="#d2dbed" stroke-width="0"/><rect width="68.15887" height="67.448882" rx="0" ry="0" transform="translate(103.349635 222.275559)" fill="#d2dbed" stroke-width="0"/><rect width="68.15887" height="67.448882" rx="0" ry="0" transform="matrix(.707107 0.707107-.707107 0.707107 171.257486 126.386397)" fill="#d2dbed" stroke-width="0"/><rect width="68.15887" height="67.448882" rx="0" ry="0" transform="matrix(.707107 0.707107-.707107 0.707107 340.891542 289.724441)" fill="#d2dbed" stroke-width="0"/><rect width="68.15887" height="67.448882" rx="0" ry="0" transform="matrix(.707107 0.707107-.707107 0.707107 171.006467 289.473422)" fill="#d2dbed" stroke-width="0"/><rect width="68.15887" height="67.448882" rx="0" ry="0" transform="matrix(.707107 0.707107-.707107 0.707107 341.142561 126.135378)" fill="#d2dbed" stroke-width="0"/></g><g transform="matrix(.549428 0 0 0.544765 4.299678-13.555275)"><path d="M137.42907,256c0-65.55866,53.08602-118.70446,118.57093-118.70446s118.57093,53.1458,118.57093,118.70446-53.08602,118.70446-118.57093,118.70446-118.57093-53.1458-118.57093-118.70446ZM256,309.21908c30.00379,0,54.32667-23.827,54.32667-53.21908s-24.32288-53.21908-54.32667-53.21908-54.32667,23.827-54.32667,53.21908s24.32288,53.21908,54.32667,53.21908Z" fill="#d2dbed" stroke-width="0"/><rect width="68.15887" height="67.448882" rx="0" ry="0" transform="translate(225.03911 98.743663)" fill="#d2dbed" stroke-width="0"/><rect width="68.15887" height="67.448882" rx="0" ry="0" transform="translate(225.03911 340.980019)" fill="#d2dbed" stroke-width="0"/><rect width="68.15887" height="67.448882" rx="0" ry="0" transform="translate(340.491495 222.275559)" fill="#d2dbed" stroke-width="0"/><rect width="68.15887" height="67.448882" rx="0" ry="0" transform="translate(103.349635 222.275559)" fill="#d2dbed" stroke-width="0"/><rect width="68.15887" height="67.448882" rx="0" ry="0" transform="matrix(.707107 0.707107-.707107 0.707107 171.257486 126.386397)" fill="#d2dbed" stroke-width="0"/><rect width="68.15887" height="67.448882" rx="0" ry="0" transform="matrix(.707107 0.707107-.707107 0.707107 340.891542 289.724441)" fill="#d2dbed" stroke-width="0"/><rect width="68.15887" height="67.448882" rx="0" ry="0" transform="matrix(.707107 0.707107-.707107 0.707107 171.006467 289.473422)" fill="#d2dbed" stroke-width="0"/><rect width="68.15887" height="67.448882" rx="0" ry="0" transform="matrix(.707107 0.707107-.707107 0.707107 341.142561 126.135378)" fill="#d2dbed" stroke-width="0"/></g></svg>