<svg id="eKcg4AdiuJl1" xmlns="http://www.w3.org/2000/svg" xmlns:xlink="http://www.w3.org/1999/xlink" viewBox="0 0 512 512" shape-rendering="geometricPrecision" text-rendering="geometricPrecision"><g transform="matrix(.835129 0 0 0.827406 51.383933 54.395716)"><g transform="matrix(.955343-.269579 0.274084 0.971309-14.027814 132.976)"><path d="M137.42907,256c0-65.55866,53.08602-118.70446,118.57093-118.70446s118.57093,53.1458,118.57093,118.70446-53.08602,118.70446-118.57093,118.70446-118.57093-53.1458-118.57093-118.70446ZM256,309.21908c30.00379,0,54.32667-23.827,54.32667-53.21908s-24.32288-53.21908-54.32667-53.21908-54.32667,23.827-54.32667,53.21908s24.32288,53.21908,54.32667,53.21908Z" fill="#d2dbed" stroke-width="0"/><rect width="68.1589" height="67.4489" rx="0" ry="0" transform="translate(225.039 98.7437)" fill="#d2dbed" stroke-width="0"/><rect width="68.1589" height="67.4489" rx="0" ry="0" transform="translate(225.039 340.98)" fill="#d2dbed" stroke-width="0"/><rect width="68.1589" height="67.4489" rx="0" ry="0" transform="translate(340.491 222.276)" fill="#d2dbed" stroke-width="0"/><rect width="68.1589" height="67.4489" rx="0" ry="0" transform="translate(103.35 222.276)" fill="#d2dbed" stroke-width="0"/><rect width="68.1589" height="67.4489" rx="0" ry="0" transform="matrix(.707107 0.707107-.707107 0.707107 171.257 126.386)" fill="#d2dbed" stroke-width="0"/><rect width="68.1589" height="67.4489" rx="0" ry="0" transform="matrix(.707107 0.707107-.707107 0.707107 340.892 289.724)" fill="#d2dbed" stroke-width="0"/><rect width="68.1589" height="67.4489" rx="0" ry="0" transform="matrix(.707107 0.707107-.707107 0.707107 171.006 289.473)" fill="#d2dbed" stroke-width="0"/><rect width="68.1589" height="67.4489" rx="0" ry="0" transform="matrix(.707107 0.707107-.707107 0.707107 341.143 126.135)" fill="#d2dbed" stroke-width="0"/></g><g transform="matrix(.549428 0 0 0.544765 4.29968-13.5553)"><path d="M137.42907,256c0-65.55866,53.08602-118.70446,118.57093-118.70446s118.57093,53.1458,118.57093,118.70446-53.08602,118.70446-118.57093,118.70446-118.57093-53.1458-118.57093-118.70446ZM256,309.21908c30.00379,0,54.32667-23.827,54.32667-53.21908s-24.32288-53.21908-54.32667-53.21908-54.32667,23.827-54.32667,53.21908s24.32288,53.21908,54.32667,53.21908Z" fill="#d2dbed" stroke-width="0"/><rect width="68.1589" height="67.4489" rx="0" ry="0" transform="translate(225.039 98.7437)" fill="#d2dbed" stroke-width="0"/><rect width="68.1589" height="67.4489" rx="0" ry="0" transform="translate(225.039 340.98)" fill="#d2dbed" stroke-width="0"/><rect width="68.1589" height="67.4489" rx="0" ry="0" transform="translate(340.491 222.276)" fill="#d2dbed" stroke-width="0"/><rect width="68.1589" height="67.4489" rx="0" ry="0" transform="translate(103.35 222.276)" fill="#d2dbed" stroke-width="0"/><rect width="68.1589" height="67.4489" rx="0" ry="0" transform="matrix(.707107 0.707107-.707107 0.707107 171.257 126.386)" fill="#d2dbed" stroke-width="0"/><rect width="68.1589" height="67.4489" rx="0" ry="0" transform="matrix(.707107 0.707107-.707107 0.707107 340.892 289.724)" fill="#d2dbed" stroke-width="0"/><rect width="68.1589" height="67.4489" rx="0" ry="0" transform="matrix(.707107 0.707107-.707107 0.707107 171.006 289.473)" fill="#d2dbed" stroke-width="0"/><rect width="68.1589" height="67.4489" rx="0" ry="0" transform="matrix(.707107 0.707107-.707107 0.707107 341.143 126.135)" fill="#d2dbed" stroke-width="0"/></g></g><path d="M6.15116,259.4924C6.15116,123.26077,118.0123,12.8232,256,12.8232s249.84884,110.43756,249.84884,246.6692-111.86114,246.6692-249.84884,246.6692-249.84884-110.43756-249.84884-246.6692ZM256,473.26754c115.47222,0,209.08095-95.71039,209.08095-213.77514s-93.60873-213.77514-209.08095-213.77514-209.08095,95.71039-209.08095,213.77514s93.60873,213.77514,209.08095,213.77514Z" fill="#d2dbed" stroke-width="0"/></svg>